HIERARCHY
ROOT hips
{
	OFFSET -0.003675 0.299928 -0.021708
	CHANNELS 6 Xposition Yposition Zposition Xrotation Yrotation Zrotation
	JOINT LowerBack
	{
		OFFSET 0.000919 0.177588 0.009275
		CHANNELS 3 Xrotation Yrotation Zrotation
		JOINT spine
		{
			OFFSET 0.000919 0.177588 0.009275
			CHANNELS 3 Xrotation Yrotation Zrotation
			JOINT chest
			{
				OFFSET 0.000456 0.100015 0.004638
				CHANNELS 3 Xrotation Yrotation Zrotation
				JOINT neck
				{
					OFFSET 0.000456 0.100015 0.004638
					CHANNELS 3 Xrotation Yrotation Zrotation
					JOINT head
					{
						OFFSET 0.000924 0.155147 0.009274
						CHANNELS 6 Xposition Yposition Zposition Xrotation Yrotation Zrotation
						End Site
						{
							OFFSET 0.000000 0.153400 0.000000
						}
					}
				}
				JOINT shoulder.L
				{
					OFFSET 0.019937 0.078966 0.057518
					CHANNELS 6 Xposition Yposition Zposition Yrotation Xrotation Zrotation
					JOINT upper_arm.L
					{
						OFFSET 0.177024 -0.020465 -0.095062
						CHANNELS 6 Xposition Yposition Zposition Xrotation Yrotation Zrotation
						JOINT forearm.L
						{
							OFFSET 0.247100 -0.135500 -0.061800
							CHANNELS 3 Xrotation Yrotation Zrotation
							JOINT hand.L
							{
								OFFSET 0.217000 -0.143000 0.039300
								CHANNELS 3 Xrotation Yrotation Zrotation
								JOINT palm.01.L
								{
									OFFSET 0.021770 -0.038291 0.012954
									CHANNELS 6 Xposition Yposition Zposition Yrotation Xrotation Zrotation
									JOINT f_index.01.L
									{
										OFFSET 0.053215 -0.044137 0.008236
										CHANNELS 3 Xrotation Yrotation Zrotation
										JOINT f_index.02.L
										{
											OFFSET 0.036108 -0.024723 -0.010656
											CHANNELS 3 Xrotation Yrotation Zrotation
											JOINT f_index.03.L
											{
												OFFSET 0.021342 -0.014948 -0.010846
												CHANNELS 3 Xrotation Yrotation Zrotation
												End Site
												{
													OFFSET 0.015600 -0.009860 -0.013421
												}
											}
										}
									}
									JOINT thumb.01.L
									{
										OFFSET -0.009090 -0.002348 -0.024223
										CHANNELS 6 Xposition Yposition Zposition Xrotation Yrotation Zrotation
										JOINT thumb.02.L
										{
											OFFSET 0.019713 -0.035076 -0.011120
											CHANNELS 3 Xrotation Yrotation Zrotation
											JOINT thumb.03.L
											{
												OFFSET 0.024877 -0.021748 -0.005176
												CHANNELS 3 Xrotation Yrotation Zrotation
												End Site
												{
													OFFSET 0.016125 -0.013029 -0.001569
												}
											}
										}
									}
								}
								JOINT palm.02.L
								{
									OFFSET 0.032823 -0.025104 0.012281
									CHANNELS 6 Xposition Yposition Zposition Yrotation Xrotation Zrotation
									JOINT f_middle.01.L
									{
										OFFSET 0.055723 -0.038469 0.008037
										CHANNELS 3 Xrotation Yrotation Zrotation
										JOINT f_middle.02.L
										{
											OFFSET 0.038167 -0.027473 -0.015582
											CHANNELS 3 Xrotation Yrotation Zrotation
											JOINT f_middle.03.L
											{
												OFFSET 0.021707 -0.016587 -0.017037
												CHANNELS 3 Xrotation Yrotation Zrotation
												End Site
												{
													OFFSET 0.014112 -0.010584 -0.014294
												}
											}
										}
									}
								}
								JOINT palm.03.L
								{
									OFFSET 0.039230 -0.011402 0.008390
									CHANNELS 6 Xposition Yposition Zposition Yrotation Xrotation Zrotation
									JOINT f_ring.01.L
									{
										OFFSET 0.061796 -0.031470 0.007910
										CHANNELS 3 Xrotation Yrotation Zrotation
										JOINT f_ring.02.L
										{
											OFFSET 0.033092 -0.023401 -0.019127
											CHANNELS 3 Xrotation Yrotation Zrotation
											JOINT f_ring.03.L
											{
												OFFSET 0.021392 -0.015362 -0.017824
												CHANNELS 3 Xrotation Yrotation Zrotation
												End Site
												{
													OFFSET 0.008670 -0.007297 -0.014686
												}
											}
										}
									}
								}
								JOINT palm.04.L
								{
									OFFSET 0.043417 0.002450 0.002889
									CHANNELS 6 Xposition Yposition Zposition Yrotation Xrotation Zrotation
									JOINT f_pinky.01.L
									{
										OFFSET 0.069986 -0.026156 0.003627
										CHANNELS 3 Xrotation Yrotation Zrotation
										JOINT f_pinky.02.L
										{
											OFFSET 0.018520 -0.012813 -0.016429
											CHANNELS 3 Xrotation Yrotation Zrotation
											JOINT f_pinky.03.L
											{
												OFFSET 0.013822 -0.009796 -0.014947
												CHANNELS 3 Xrotation Yrotation Zrotation
												End Site
												{
													OFFSET 0.007238 -0.006103 -0.011657
												}
											}
										}
									}
								}
							}
						}
					}
				}
				JOINT shoulder.R
				{
					OFFSET -0.016662 0.078957 0.057696
					CHANNELS 6 Xposition Yposition Zposition Yrotation Xrotation Zrotation
					JOINT upper_arm.R
					{
						OFFSET -0.176972 -0.020537 -0.095144
						CHANNELS 6 Xposition Yposition Zposition Xrotation Yrotation Zrotation
						JOINT forearm.R
						{
							OFFSET -0.247100 -0.135500 -0.061800
							CHANNELS 3 Xrotation Yrotation Zrotation
							JOINT hand.R
							{
								OFFSET -0.217000 -0.143000 0.039300
								CHANNELS 3 Xrotation Yrotation Zrotation
								JOINT palm.01.R
								{
									OFFSET -0.021773 -0.038278 0.012988
									CHANNELS 6 Xposition Yposition Zposition Yrotation Xrotation Zrotation
									JOINT f_index.01.R
									{
										OFFSET -0.053212 -0.044139 0.008249
										CHANNELS 3 Xrotation Yrotation Zrotation
										JOINT f_index.02.R
										{
											OFFSET -0.036049 -0.024835 -0.010634
											CHANNELS 3 Xrotation Yrotation Zrotation
											JOINT f_index.03.R
											{
												OFFSET -0.021371 -0.014881 -0.010866
												CHANNELS 3 Xrotation Yrotation Zrotation
												End Site
												{
													OFFSET -0.015584 -0.009883 -0.013422
												}
											}
										}
									}
									JOINT thumb.01.R
									{
										OFFSET 0.009113 -0.002381 -0.024211
										CHANNELS 6 Xposition Yposition Zposition Xrotation Yrotation Zrotation
										JOINT thumb.02.R
										{
											OFFSET -0.019694 -0.035097 -0.011088
											CHANNELS 3 Xrotation Yrotation Zrotation
											JOINT thumb.03.R
											{
												OFFSET -0.024867 -0.021762 -0.005168
												CHANNELS 3 Xrotation Yrotation Zrotation
												End Site
												{
													OFFSET -0.016120 -0.013036 -0.001565
												}
											}
										}
									}
								}
								JOINT palm.02.R
								{
									OFFSET -0.032828 -0.025095 0.012286
									CHANNELS 6 Xposition Yposition Zposition Yrotation Xrotation Zrotation
									JOINT f_middle.01.R
									{
										OFFSET -0.055721 -0.038472 0.008040
										CHANNELS 3 Xrotation Yrotation Zrotation
										JOINT f_middle.02.R
										{
											OFFSET -0.038101 -0.027593 -0.015557
											CHANNELS 3 Xrotation Yrotation Zrotation
											JOINT f_middle.03.R
											{
												OFFSET -0.021730 -0.016530 -0.017054
												CHANNELS 3 Xrotation Yrotation Zrotation
												End Site
												{
													OFFSET -0.014096 -0.010608 -0.014293
												}
											}
										}
									}
								}
								JOINT palm.03.R
								{
									OFFSET -0.039192 -0.011488 0.008390
									CHANNELS 6 Xposition Yposition Zposition Yrotation Xrotation Zrotation
									JOINT f_ring.01.R
									{
										OFFSET -0.061839 -0.031387 0.007876
										CHANNELS 3 Xrotation Yrotation Zrotation
										JOINT f_ring.02.R
										{
											OFFSET -0.033068 -0.023437 -0.019125
											CHANNELS 3 Xrotation Yrotation Zrotation
											JOINT f_ring.03.R
											{
												OFFSET -0.021371 -0.015393 -0.017822
												CHANNELS 3 Xrotation Yrotation Zrotation
												End Site
												{
													OFFSET -0.008654 -0.007321 -0.014684
												}
											}
										}
									}
								}
								JOINT palm.04.R
								{
									OFFSET -0.043421 0.002443 0.002845
									CHANNELS 6 Xposition Yposition Zposition Yrotation Xrotation Zrotation
									JOINT f_pinky.01.R
									{
										OFFSET -0.069983 -0.026169 0.003599
										CHANNELS 3 Xrotation Yrotation Zrotation
										JOINT f_pinky.02.R
										{
											OFFSET -0.018501 -0.012842 -0.016428
											CHANNELS 3 Xrotation Yrotation Zrotation
											JOINT f_pinky.03.R
											{
												OFFSET -0.013806 -0.009821 -0.014946
												CHANNELS 3 Xrotation Yrotation Zrotation
												End Site
												{
													OFFSET -0.007226 -0.006121 -0.011655
												}
											}
										}
									}
								}
							}
						}
					}
				}
			}
		}
	}
	JOINT pelvis.L
	{
		OFFSET 0.000000 0.000000 0.000000
		CHANNELS 6 Xposition Yposition Zposition Xrotation Yrotation Zrotation
		JOINT thigh.L
		{
			OFFSET 0.101675 0.001054 -0.000000
			CHANNELS 3 Xrotation Yrotation Zrotation
			JOINT shin.L
			{
				OFFSET 0.000000 -0.534800 0.041000
				CHANNELS 3 Xrotation Yrotation Zrotation
				JOINT foot.L
				{
					OFFSET 0.000000 -0.452000 -0.044800
					CHANNELS 3 Xrotation Yrotation Zrotation
					JOINT toe.L
					{
						OFFSET -0.000000 -0.068500 0.109600
						CHANNELS 3 Xrotation Yrotation Zrotation
						End Site
						{
							OFFSET -0.000000 0.000000 0.067200
						}
					}
				}
				JOINT heel.L
				{
					OFFSET 0.000000 -0.452000 -0.044800
					CHANNELS 3 Xrotation Yrotation Zrotation
					JOINT heel.02.L
					{
						OFFSET -0.038000 -0.085200 0.016200
						CHANNELS 6 Xposition Yposition Zposition Xrotation Yrotation Zrotation
						End Site
						{
							OFFSET 0.080000 -0.000000 0.000000
						}
					}
				}
			}
		}
	}
	JOINT pelvis.R
	{
		OFFSET 0.000000 0.000000 0.000000
		CHANNELS 6 Xposition Yposition Zposition Xrotation Yrotation Zrotation
		JOINT thigh.R
		{
			OFFSET -0.094325 0.001054 0.000000
			CHANNELS 3 Xrotation Yrotation Zrotation
			JOINT shin.R
			{
				OFFSET 0.000000 -0.534800 0.041000
				CHANNELS 3 Xrotation Yrotation Zrotation
				JOINT foot.R
				{
					OFFSET 0.000000 -0.452000 -0.044800
					CHANNELS 3 Xrotation Yrotation Zrotation
					JOINT toe.R
					{
						OFFSET -0.000000 -0.068500 0.109600
						CHANNELS 3 Xrotation Yrotation Zrotation
						End Site
						{
							OFFSET -0.000000 0.000000 0.067200
						}
					}
				}
				JOINT heel.R
				{
					OFFSET 0.000000 -0.452000 -0.044800
					CHANNELS 3 Xrotation Yrotation Zrotation
					JOINT heel.02.R
					{
						OFFSET 0.038000 -0.085200 0.016200
						CHANNELS 6 Xposition Yposition Zposition Xrotation Yrotation Zrotation
						End Site
						{
							OFFSET -0.080000 0.000000 -0.000000
						}
					}
				}
			}
		}
	}
}
MOTION
Frames: 4
Frame Time: 0.041667
-0.001458 0.197205 0.004362 31.255004 11.006114 81.929103 -0.000000 0.000001 -0.000001 -0.000001 0.000002 -0.000001 0.000000 0.000000 -0.000001 -0.000000 0.000000 -0.000001 0.000924 0.155147 0.009274 -8.180907 0.033583 0.999304 0.019937 0.078966 0.057518 20.180979 5.038141 35.174412 0.177024 -0.020465 -0.095062 7.099904 20.947051 -18.693700 -40.501130 -16.798659 -39.284284 -0.000003 0.000000 0.000001 0.021770 -0.038291 0.012954 0.000001 -0.000002 -0.000006 -0.000001 -0.000001 -0.000000 -0.000000 -0.000001 0.000005 0.000000 0.000003 -0.000002 -0.009090 -0.002348 -0.024224 0.000001 -0.000003 -0.000006 -0.000001 0.000002 -0.000000 0.000000 -0.000001 0.000003 0.032823 -0.025104 0.012281 0.000000 0.000002 0.000004 0.000002 0.000001 -0.000005 -0.000003 -0.000002 -0.000000 0.000000 0.000006 0.000003 0.039230 -0.011402 0.008390 0.000003 -0.000000 0.000004 -0.000000 -0.000000 -0.000000 0.000001 0.000003 0.000001 0.000005 -0.000003 -0.000000 0.043417 0.002450 0.002889 0.000000 0.000001 -0.000005 -0.000000 -0.000009 0.000005 -0.000001 0.000001 -0.000003 -0.000003 -0.000005 -0.000001 -0.016662 0.078957 0.057696 7.390377 2.179738 -40.917119 -0.176972 -0.020537 -0.095144 -6.749326 -13.743180 31.662506 -46.331178 -7.421182 73.879984 -0.000005 0.000005 0.000003 -0.021773 -0.038278 0.012988 -0.000001 0.000001 -0.000002 0.000001 0.000002 -0.000003 0.000001 0.000002 -0.000001 -0.000001 0.000000 0.000003 0.009114 -0.002381 -0.024211 -0.000000 0.000001 -0.000003 0.000001 0.000001 0.000000 0.000004 -0.000001 -0.000004 -0.032828 -0.025095 0.012286 -0.000003 0.000003 -0.000001 0.000001 0.000004 -0.000001 0.000000 0.000001 0.000001 -0.000003 0.000006 -0.000005 -0.039192 -0.011488 0.008390 -0.000003 0.000003 -0.000002 0.000002 0.000006 0.000000 0.000002 -0.000001 -0.000002 -0.000001 0.000002 -0.000002 -0.043421 0.002443 0.002845 -0.000004 0.000004 -0.000003 -0.000002 0.000003 -0.000002 -0.000002 -0.000004 -0.000000 -0.000003 -0.000001 0.000000 0.000000 0.000000 -0.000000 -2.319276 1.377824 -15.439620 51.886618 -0.754568 -12.516220 -4.316829 -0.086839 0.878171 -0.000002 -0.000002 -0.000001 -0.000004 0.000001 0.000000 0.000000 -0.000001 0.000001 -0.038000 -0.085200 0.016200 -0.000000 0.000003 0.000001 0.000000 0.000000 -0.000000 -2.216806 1.350661 -14.207879 42.537933 -0.745508 -7.125869 -5.818913 0.311204 -3.141242 -0.000003 0.000001 -0.000000 0.000003 -0.000000 0.000000 0.000002 -0.000001 0.000000 0.038000 -0.085200 0.016200 -0.000004 -0.000005 -0.000001 
0.000287 0.198760 0.005574 19.243491 13.355622 86.326631 -0.000000 -0.000002 0.000000 -0.000000 -0.000002 0.000001 -0.000002 0.000001 -0.000000 -0.000001 -0.000003 0.000000 0.000924 0.155148 0.009274 -11.529203 0.045799 -2.895888 0.019937 0.078966 0.057518 15.314539 3.802706 35.235505 0.177024 -0.020466 -0.095062 3.477136 18.241355 -14.159302 -51.777236 -11.509407 -49.115784 -0.000001 0.000000 -0.000001 0.021770 -0.038291 0.012954 0.000004 0.000005 -0.000002 -0.000005 -0.000002 0.000006 0.000002 -0.000001 0.000005 -0.000000 -0.000007 0.000003 -0.009090 -0.002348 -0.024223 -0.000003 -0.000003 0.000002 0.000003 0.000001 -0.000002 -0.000003 0.000001 -0.000008 0.032823 -0.025104 0.012281 0.000003 0.000004 0.000007 0.000001 0.000002 -0.000005 -0.000004 0.000001 0.000003 0.000005 -0.000008 0.000004 0.039230 -0.011402 0.008390 0.000005 0.000003 0.000004 -0.000002 -0.000002 -0.000002 0.000002 0.000002 0.000003 -0.000002 -0.000004 0.000002 0.043417 0.002449 0.002889 0.000003 0.000007 -0.000002 0.000002 -0.000006 0.000003 -0.000003 0.000004 -0.000003 0.000000 -0.000003 -0.000004 -0.016662 0.078957 0.057696 1.217586 2.841571 -42.268947 -0.176972 -0.020537 -0.095144 1.200695 -17.979797 28.651913 -51.493814 -21.421136 84.496605 -0.000001 0.000001 -0.000000 -0.021773 -0.038278 0.012988 -0.000000 0.000001 -0.000005 -0.000001 0.000002 0.000001 -0.000004 -0.000002 -0.000005 -0.000000 0.000003 -0.000002 0.009113 -0.002381 -0.024212 -0.000000 -0.000005 0.000002 -0.000001 -0.000001 0.000002 0.000000 0.000000 -0.000003 -0.032828 -0.025095 0.012286 -0.000001 0.000001 -0.000003 0.000001 0.000003 0.000001 0.000001 0.000002 0.000000 -0.000003 0.000003 -0.000002 -0.039192 -0.011488 0.008390 -0.000002 0.000006 -0.000002 0.000002 0.000001 -0.000003 -0.000005 0.000001 0.000002 -0.000003 0.000003 0.000002 -0.043421 0.002443 0.002845 0.000000 0.000003 0.000000 -0.000009 0.000002 -0.000002 -0.000001 -0.000001 -0.000000 0.000001 -0.000002 -0.000003 0.000000 0.000000 -0.000000 -2.336217 0.760828 -9.053021 52.056225 -0.630232 -10.865683 -3.099462 -0.149193 1.507375 0.000002 -0.000001 -0.000000 -0.000000 -0.000001 0.000001 0.000002 -0.000001 -0.000000 -0.038000 -0.085200 0.016200 0.000000 -0.000000 -0.000001 0.000000 0.000000 0.000000 -2.257425 0.749103 -7.819884 47.509204 -0.647472 -5.553744 -3.485777 0.535691 -5.412776 -0.000003 -0.000001 -0.000001 0.000001 0.000001 0.000000 0.000000 -0.000002 -0.000001 0.038000 -0.085200 0.016200 0.000002 0.000001 -0.000002 
-0.019564 0.208493 -0.016579 8.525856 4.720800 82.415118 -0.000001 0.000001 -0.000000 -0.000000 0.000001 -0.000001 -0.000000 0.000001 0.000001 0.000001 0.000002 0.000001 0.000924 0.155148 0.009274 4.670751 -0.024473 -20.556356 0.019937 0.078966 0.057518 -17.356405 -5.029967 25.509971 0.177025 -0.020465 -0.095062 -6.940326 15.119001 -58.495728 10.755519 13.547159 -4.250016 -0.000001 0.000001 0.000001 0.021770 -0.038291 0.012954 0.000001 -0.000000 -0.000001 -0.000001 -0.000000 0.000001 0.000003 0.000001 0.000010 -0.000002 -0.000000 -0.000000 -0.009090 -0.002348 -0.024223 -0.000000 -0.000001 0.000001 0.000001 -0.000000 0.000005 -0.000000 0.000000 0.000001 0.032823 -0.025104 0.012281 -0.000000 0.000001 0.000005 -0.000000 0.000001 -0.000003 -0.000000 -0.000002 0.000001 -0.000002 -0.000003 0.000000 0.039230 -0.011402 0.008390 0.000001 -0.000000 0.000008 -0.000001 0.000001 -0.000002 0.000001 0.000003 0.000001 0.000001 -0.000002 0.000003 0.043417 0.002450 0.002889 0.000002 -0.000000 -0.000002 0.000001 0.000000 -0.000004 -0.000004 0.000004 0.000005 0.000001 0.000001 0.000002 -0.016662 0.078957 0.057696 -9.752013 -0.607329 -27.111819 -0.176972 -0.020537 -0.095144 -33.097328 -13.498504 57.956341 24.208176 -15.491668 23.688901 0.000002 0.000002 -0.000000 -0.021773 -0.038278 0.012988 0.000001 -0.000000 0.000002 -0.000000 0.000001 -0.000003 0.000002 -0.000002 0.000001 -0.000000 -0.000001 0.000006 0.009114 -0.002381 -0.024211 -0.000001 -0.000004 0.000000 0.000001 -0.000004 0.000005 0.000004 0.000001 -0.000003 -0.032828 -0.025095 0.012286 -0.000000 -0.000000 0.000002 -0.000003 0.000005 -0.000004 0.000002 -0.000002 -0.000006 -0.000006 0.000003 -0.000002 -0.039192 -0.011488 0.008390 -0.000002 -0.000000 0.000003 -0.000001 0.000006 -0.000003 0.000001 -0.000004 -0.000000 0.000002 -0.000001 0.000001 -0.043421 0.002443 0.002845 -0.000002 -0.000001 -0.000001 -0.000001 0.000001 0.000001 -0.000001 -0.000006 0.000000 0.000002 -0.000003 -0.000006 -0.000000 0.000000 -0.000000 -2.604408 0.098505 -1.941991 48.258712 -0.220208 -5.601731 15.481223 0.221789 -2.236252 0.000000 0.000000 0.000000 -0.000002 -0.000002 0.000001 0.000000 0.000000 -0.000000 -0.038000 -0.085200 0.016200 0.000000 -0.000000 -0.000000 -0.000000 0.000000 -0.000000 -2.544770 0.097103 -0.707906 -72.185694 1.363052 13.304640 100.904550 -0.700253 7.086045 -0.000003 0.000000 0.000000 0.000002 -0.000000 -0.000000 0.000002 0.000000 -0.000000 0.038000 -0.085200 0.016200 -0.000002 -0.000000 -0.000000 
-0.019615 0.206931 -0.017547 4.938606 3.972602 80.296202 -0.000001 -0.000000 -0.000000 -0.000001 -0.000001 0.000001 -0.000000 -0.000001 -0.000000 -0.000000 0.000000 0.000001 0.000924 0.155148 0.009274 9.921366 -0.037535 -21.301010 0.019937 0.078966 0.057518 -21.373965 -2.516410 30.528196 0.177025 -0.020465 -0.095062 -12.439510 14.157158 -53.305860 5.239371 6.473209 -2.249849 0.000002 0.000001 -0.000004 0.021770 -0.038291 0.012954 -0.000000 0.000001 0.000003 0.000000 -0.000000 0.000001 0.000000 -0.000000 0.000008 -0.000000 0.000003 -0.000000 -0.009090 -0.002348 -0.024223 -0.000002 -0.000002 0.000001 0.000000 -0.000001 0.000005 -0.000000 -0.000000 -0.000001 0.032823 -0.025104 0.012281 -0.000002 0.000003 0.000005 -0.000001 0.000002 -0.000005 -0.000004 0.000000 0.000001 0.000000 -0.000005 0.000007 0.039230 -0.011402 0.008390 -0.000000 0.000000 0.000008 0.000002 -0.000000 -0.000004 -0.000000 0.000003 0.000003 -0.000001 -0.000002 0.000003 0.043417 0.002450 0.002889 -0.000002 -0.000000 -0.000002 -0.000001 -0.000004 -0.000004 0.000005 -0.000003 0.000002 0.000002 -0.000001 -0.000001 -0.016662 0.078957 0.057696 -15.605215 1.881374 -29.181164 -0.176972 -0.020537 -0.095144 -35.628125 -11.199888 54.050733 8.554394 -5.344519 16.292689 0.000001 -0.000000 0.000002 -0.021773 -0.038278 0.012988 0.000001 -0.000001 -0.000002 -0.000000 0.000006 -0.000001 0.000001 0.000001 -0.000004 -0.000002 0.000000 0.000004 0.009113 -0.002381 -0.024212 0.000002 0.000001 0.000001 -0.000001 -0.000002 0.000002 0.000005 -0.000002 0.000006 -0.032828 -0.025095 0.012286 0.000002 -0.000001 -0.000003 0.000002 0.000002 -0.000001 0.000001 -0.000000 -0.000004 -0.000006 0.000003 0.000001 -0.039192 -0.011488 0.008390 0.000002 -0.000001 0.000001 0.000002 -0.000002 0.000002 0.000003 -0.000000 -0.000000 -0.000003 0.000001 -0.000004 -0.043421 0.002443 0.002845 -0.000000 0.000000 0.000000 -0.000004 0.000003 0.000001 0.000001 -0.000002 0.000005 -0.000002 0.000000 -0.000002 -0.000000 0.000000 0.000000 -2.494565 -0.067901 -0.236150 43.692543 0.198201 0.161482 25.494074 0.355706 -3.589200 0.000000 -0.000001 -0.000000 0.000002 -0.000002 0.000000 0.000000 -0.000000 -0.000000 -0.038000 -0.085200 0.016200 -0.000002 0.000000 -0.000000 -0.000000 0.000000 0.000000 -2.443748 -0.067583 0.998090 -72.338212 1.293039 12.451592 103.819360 -0.374580 3.784740 0.000000 -0.000000 0.000001 0.000001 0.000000 0.000000 0.000002 -0.000000 0.000000 0.038000 -0.085200 0.016200 -0.000000 -0.000000 0.000000 
